<?xml version="1.0" encoding="UTF-8"?>
<svg width="180px" height="180px" viewBox="0 0 180 180" version="1.1" xmlns="http://www.w3.org/2000/svg" xmlns:xlink="http://www.w3.org/1999/xlink">
    <title>web-pio-outline</title>
    <g id="logo" stroke="none" stroke-width="1" fill="none" fill-rule="evenodd">
        <g id="web-pio-outline">
            <rect id="Rectangle" x="0" y="0" width="180" height="180"></rect>
            <polygon id="Rectangle" fill="#000000" transform="translate(87.6351, 114.9167) rotate(25) translate(-87.6351, -114.9167)" points="101.034664 59.1083056 102.135135 53.4166667 102.135135 176.416667 73.1351351 176.416667"></polygon>
            <polygon id="Rectangle" fill-rule="nonzero" transform="translate(87.6351, 114.9167) rotate(25) translate(-87.6351, -114.9167)" points="102.135135 53.4166667 102.135135 176.416667 73.1351351 176.416667 101.034664 59.1083056"></polygon>
            <path d="M90,129.416667 C136.391919,129.416667 174,110.555363 174,73 C174,35.444637 136.391919,5 90,5 C43.608081,5 6,35.444637 6,73 C6,110.555363 43.608081,129.416667 90,129.416667 Z" id="Oval" fill="#FFFFFF"></path>
            <path d="M90,5 C136.391919,5 174,35.444637 174,73 C174,110.555363 136.391919,129.416667 90,129.416667 C43.608081,129.416667 6,110.555363 6,73 C6,35.444637 43.608081,5 90,5 Z M90,9 C45.6531044,9 10,37.8620369 10,73 C10,105.62887 41.9662711,125.416667 90,125.416667 C138.033729,125.416667 170,105.62887 170,73 C170,37.8620369 134.346896,9 90,9 Z" id="Oval" fill="#000000" fill-rule="nonzero"></path>
            <rect id="Rectangle" fill="#C05050" x="6.13513514" y="117.416667" width="168" height="10"></rect>
            <path d="M75,73 C76.8859756,69.5748976 78.890753,66.8005567 81.0143322,64.6769775 C83.1379115,62.5533982 86.1331341,60.327739 90,58 L90.5464799,58.3318397 C94.1501487,60.5394751 96.9632113,62.654521 98.9856678,64.6769775 C101.109247,66.8005567 103.114024,69.5748976 105,73 L75,73 Z" id="kuchi" fill="#646464"></path>
            <ellipse id="Oval" fill="#000000" transform="translate(55, 53.4378) rotate(-60) translate(-55, -53.4378)" cx="55" cy="53.4378222" rx="11.5" ry="8.39189189"></ellipse>
            <ellipse id="Oval" fill="#FFFFFF" transform="translate(53.25, 49.0766) rotate(-60) translate(-53.25, -49.0766)" cx="53.25" cy="49.0766062" rx="3" ry="2.18918919"></ellipse>
            <ellipse id="Oval" fill="#000000" transform="translate(124, 53.4378) rotate(60) translate(-124, -53.4378)" cx="124" cy="53.4378222" rx="11.5" ry="8.39189189"></ellipse>
            <ellipse id="Oval" fill="#FFFFFF" transform="translate(120.25, 49.0766) rotate(-60) translate(-120.25, -49.0766)" cx="120.25" cy="49.0766062" rx="3" ry="2.18918919"></ellipse>
            <g id="hand" transform="translate(115, 111.4167)" fill="#646464">
                <rect id="Rectangle" x="0" y="0" width="32" height="16" rx="7"></rect>
                <ellipse id="Oval" cx="4.36486486" cy="14.0211555" rx="4" ry="8.39189189"></ellipse>
                <ellipse id="Oval" cx="16.3648649" cy="14.0211555" rx="4" ry="8.39189189"></ellipse>
                <ellipse id="Oval" cx="27.3648649" cy="14.0211555" rx="4" ry="8.39189189"></ellipse>
            </g>
            <g id="hand" transform="translate(33, 111.4167)" fill="#646464">
                <rect id="Rectangle" x="0" y="0" width="32" height="16" rx="7"></rect>
                <ellipse id="Oval" cx="4.36486486" cy="14.0211555" rx="4" ry="8.39189189"></ellipse>
                <ellipse id="Oval" cx="16.3648649" cy="14.0211555" rx="4" ry="8.39189189"></ellipse>
                <ellipse id="Oval" cx="27.3648649" cy="14.0211555" rx="4" ry="8.39189189"></ellipse>
            </g>
            <g id="web-pio" transform="translate(7.2899, 134.4385)" fill="#F34CA3" fill-rule="nonzero">
                <path d="M20.8020794,28.029478 C20.8020794,28.029478 24.5100794,28.209478 26.7780794,24.069478 C26.7780794,24.069478 28.9020794,20.541478 29.1180794,14.493478 C29.1180794,14.493478 29.4780794,8.69747798 24.0060794,8.62547798 C24.0060794,8.62547798 18.2460794,8.22947798 18.2460794,17.121478 C18.2460794,17.121478 18.4260794,13.017478 14.6100794,12.981478 C14.6100794,12.981478 11.4060794,12.837478 11.2980794,16.509478 C11.2260794,14.637478 10.5780794,8.62547798 4.7100794,8.62547798 C4.7100794,8.62547798 -0.437920605,8.80547798 0.0300793951,14.637478 C0.0300793951,14.637478 0.282079395,19.353478 2.6580794,23.889478 C2.6580794,23.889478 4.4940794,28.065478 8.4900794,28.065478 C13.6020794,28.065478 14.4660794,23.853478 14.5740794,23.061478 C14.5740794,23.745478 15.0780794,28.029478 20.8020794,28.029478 Z" id="Path"></path>
                <path d="M44.6540794,20.109478 C48.0020794,20.757478 51.8180794,19.749478 51.7820794,16.041478 C51.7460794,12.729478 49.7660794,11.001478 49.7660794,11.001478 C45.1580794,6.89747798 38.8220794,9.09347798 38.8220794,9.09347798 C32.8460794,11.253478 32.8460794,18.165478 32.8460794,18.165478 C32.5940794,24.861478 37.7780794,26.877478 37.7780794,26.877478 C43.6100794,29.253478 49.0100794,27.381478 49.0100794,27.381478 C51.9620794,26.193478 51.5660794,23.673478 51.5660794,23.673478 C51.1340794,20.325478 47.4260794,22.341478 44.6540794,20.109478 Z M43.7180794,15.537478 C44.6180794,15.537478 45.1220794,16.293478 45.1220794,17.049478 C45.1220794,17.877478 44.5100794,18.381478 43.7180794,18.381478 C42.9260794,18.381478 42.3500794,18.057478 42.2780794,17.049478 C42.2060794,16.293478 42.8900794,15.537478 43.7180794,15.537478 Z" id="Shape"></path>
                <path d="M62.4220794,0.0214779813 C57.4540794,-0.410522019 56.6620794,5.81747798 56.6620794,5.81747798 C56.6620794,5.81747798 54.3580794,18.345478 58.6420794,23.961478 C61.1980794,27.309478 67.4620794,29.361478 72.9700794,26.841478 C72.9700794,26.841478 75.7420794,25.833478 77.3620794,22.341478 C78.7300794,19.425478 78.4420794,14.673478 76.3900794,12.333478 C72.1060794,7.47347798 66.4180794,10.101478 66.4180794,10.101478 C66.4180794,10.101478 68.5780794,0.597477981 62.4220794,0.0214779813 Z M67.3180794,17.157478 C68.2180794,17.157478 68.7220794,17.913478 68.7220794,18.669478 C68.7220794,19.497478 68.1100794,20.001478 67.3180794,20.001478 C66.5260794,20.001478 65.9500794,19.677478 65.8780794,18.669478 C65.8060794,17.913478 66.4900794,17.157478 67.3180794,17.157478 Z" id="Shape"></path>
                <path d="M95.4900794,13.017478 C95.4900794,13.017478 91.1340794,12.009478 86.3100794,13.089478 C82.5300794,13.953478 82.9980794,17.265478 82.9980794,17.265478 C82.9980794,17.265478 82.9620794,20.433478 86.3460794,20.973478 C89.7660794,21.513478 92.6100794,21.621478 96.1740794,20.649478 C99.2700794,19.785478 98.7660794,16.689478 98.7660794,16.689478 C98.7660794,16.689478 98.7660794,13.881478 95.4900794,13.017478 Z" id="Path"></path>
                <path d="M103.466079,30.297478 C103.466079,30.297478 104.150079,36.597478 109.298079,36.597478 C115.850079,36.597478 113.726079,26.913478 113.726079,26.913478 C113.726079,26.913478 119.054079,29.613478 123.734079,25.761478 C126.254079,23.673478 126.938079,18.489478 126.146079,15.393478 C125.246079,11.937478 122.258079,10.209478 122.258079,10.209478 C117.614079,7.61747798 110.342079,8.12147798 106.958079,12.009478 C101.774079,17.985478 103.466079,30.297478 103.466079,30.297478 Z M115.418079,17.697478 C116.318079,17.697478 116.822079,18.453478 116.822079,19.209478 C116.822079,20.037478 116.210079,20.541478 115.418079,20.541478 C114.626079,20.541478 114.050079,20.217478 113.978079,19.209478 C113.906079,18.453478 114.590079,17.697478 115.418079,17.697478 Z" id="Shape"></path>
                <path d="M139.846079,3.69347798 C139.630079,1.53347798 137.470079,-0.0145220187 135.094079,0.237477981 C132.682079,0.489477981 130.918079,2.46947798 131.134079,4.59347798 C131.386079,6.75347798 133.474079,8.30147798 135.922079,8.04947798 C138.298079,7.79747798 140.062079,5.81747798 139.846079,3.69347798 Z M141.394079,23.925478 C142.546079,17.157478 141.430079,13.305478 141.430079,13.305478 C141.430079,13.305478 140.530079,8.80547798 136.102079,9.05747798 C136.102079,9.05747798 132.286079,8.87747798 131.098079,13.269478 C131.098079,13.269478 129.334079,19.749478 131.242079,24.969478 C131.242079,24.969478 132.286079,28.245478 136.354079,28.101478 C136.354079,28.101478 140.674079,28.209478 141.394079,23.925478 Z" id="Shape"></path>
                <path d="M164.346079,23.385478 C165.030079,22.053478 165.462079,20.325478 165.462079,18.093478 C165.462079,18.093478 165.462079,8.98547798 156.174079,8.98547798 C156.174079,8.98547798 145.662079,7.97747798 145.662079,19.101478 C145.662079,19.101478 145.662079,28.245478 156.174079,28.245478 C156.174079,28.245478 157.866079,28.245478 159.810079,27.453478 C159.810079,27.453478 162.834079,26.193478 164.346079,23.385478 Z M155.958079,17.697478 C156.858079,17.697478 157.362079,18.453478 157.362079,19.209478 C157.362079,20.037478 156.750079,20.541478 155.958079,20.541478 C155.166079,20.541478 154.590079,20.217478 154.518079,19.209478 C154.446079,18.453478 155.130079,17.697478 155.958079,17.697478 Z" id="Shape"></path>
            </g>
            <path d="M149.970235,79.6137727 C149.970235,93.4836666 164.765359,111.416667 174,111.416667 C171.770307,106.034112 171.770307,101.912764 171.770307,95.5152197 C171.770307,91.5803487 171.846871,84.0752754 172,73" id="Path" stroke="#000000" stroke-width="4" fill="#804010"></path>
            <path d="M5.97023465,79.6137727 C5.97023465,93.4836666 20.7653588,111.416667 30,111.416667 C27.7703071,106.034112 27.7703071,101.912764 27.7703071,95.5152197 C27.7703071,91.5803487 27.8468714,84.0752754 28,73" id="Path" stroke="#000000" stroke-width="4" fill="#804010" transform="translate(17.9851, 92.2083) scale(-1, 1) translate(-17.9851, -92.2083)"></path>
        </g>
    </g>
</svg>